<?xml version="1.0" encoding="UTF-8" standalone="no"?><!DOCTYPE svg PUBLIC "-//W3C//DTD SVG 1.1//EN" "http://www.w3.org/Graphics/SVG/1.1/DTD/svg11.dtd"><svg width="100%" height="100%" viewBox="0 0 3334 2500" version="1.1" xmlns="http://www.w3.org/2000/svg" xmlns:xlink="http://www.w3.org/1999/xlink" xml:space="preserve" xmlns:serif="http://www.serif.com/" style="fill-rule:evenodd;clip-rule:evenodd;stroke-linecap:round;stroke-linejoin:round;stroke-miterlimit:1.5;"><g id="Layer1"><g id="Window" opacity="0.25"><rect x="1022.67" y="29.997" width="1295.36" height="1300.35" style="fill:#ebebeb;fill-opacity:0.98;stroke:#000;stroke-width:20.83px;"/><g id="Window-Left"><rect x="1022.67" y="29.997" width="629.58" height="1300.35" style="fill:#ebebeb;fill-opacity:0.98;stroke:#000;stroke-width:20.83px;"/><rect x="1075.84" y="82.822" width="532.111" height="1198.98" style="fill:#ebebeb;fill-opacity:0.98;stroke:#000;stroke-width:20.83px;"/><rect x="1120.83" y="697.215" width="198.051" height="542.368" style="fill:#ebebeb;fill-opacity:0.98;stroke:#000;stroke-width:20.83px;"/><rect x="1364.17" y="692.954" width="198.051" height="542.368" style="fill:#ebebeb;fill-opacity:0.98;stroke:#000;stroke-width:20.83px;"/><rect x="1075.84" y="82.822" width="532.111" height="626.41" style="fill:#ebebeb;fill-opacity:0.98;stroke:#000;stroke-width:20.83px;"/><rect x="1120.79" y="123.893" width="198.051" height="542.368" style="fill:#ebebeb;fill-opacity:0.98;stroke:#000;stroke-width:20.83px;"/><rect x="1364.02" y="122.802" width="198.051" height="542.368" style="fill:#ebebeb;fill-opacity:0.98;stroke:#000;stroke-width:20.83px;"/></g><g id="Window-Right"><rect x="1688.44" y="29.997" width="629.58" height="1300.35" style="fill:#ebebeb;fill-opacity:0.98;stroke:#000;stroke-width:20.83px;"/><rect x="1741.62" y="82.822" width="532.111" height="1198.98" style="fill:#ebebeb;fill-opacity:0.98;stroke:#000;stroke-width:20.83px;"/><rect x="1786.61" y="697.215" width="198.051" height="542.368" style="fill:#ebebeb;fill-opacity:0.98;stroke:#000;stroke-width:20.83px;"/><rect x="2029.94" y="692.954" width="198.051" height="542.368" style="fill:#ebebeb;fill-opacity:0.98;stroke:#000;stroke-width:20.83px;"/><rect x="1741.62" y="82.822" width="532.111" height="626.41" style="fill:#ebebeb;fill-opacity:0.98;stroke:#000;stroke-width:20.83px;"/><rect x="1786.57" y="123.893" width="198.051" height="542.368" style="fill:#ebebeb;fill-opacity:0.98;stroke:#000;stroke-width:20.83px;"/><rect x="2029.8" y="122.802" width="198.051" height="542.368" style="fill:#ebebeb;fill-opacity:0.98;stroke:#000;stroke-width:20.83px;"/></g><rect x="999.529" y="1324.85" width="1338.42" height="79.063" style="fill:#ebebeb;fill-opacity:0.98;stroke:#000;stroke-width:20.83px;"/></g><g id="Plant-in-the-Planter" serif:id="Plant in the Planter" opacity="0.25"><g id="Plant"><path d="M2653.83,2131.99c0,0 -54.798,-80.989 -67.022,-127.386c-13.39,-50.821 -9.209,-118.336 -13.316,-177.54c-4.438,-63.989 -4.951,-137.96 -13.315,-206.391c-9.041,-73.965 -23.291,-173.17 -40.931,-237.398c-14.264,-51.936 -64.909,-147.968 -64.909,-147.968c0,0 48.371,28.158 61.366,51.483c24.727,44.384 66.874,142.92 86.995,214.824c19.691,70.367 26.969,146.365 33.733,216.6c6.547,67.993 -4.83,137.506 6.848,204.808c11.842,68.241 55.357,205.742 64.201,204.639" style="fill:#b3b3b3;"/><clipPath id="_clip1"><path d="M2653.83,2131.99c0,0 -54.798,-80.989 -67.022,-127.386c-13.39,-50.821 -9.209,-118.336 -13.316,-177.54c-4.438,-63.989 -4.951,-137.96 -13.315,-206.391c-9.041,-73.965 -23.291,-173.17 -40.931,-237.398c-14.264,-51.936 -64.909,-147.968 -64.909,-147.968c0,0 48.371,28.158 61.366,51.483c24.727,44.384 66.874,142.92 86.995,214.824c19.691,70.367 26.969,146.365 33.733,216.6c6.547,67.993 -4.83,137.506 6.848,204.808c11.842,68.241 55.357,205.742 64.201,204.639"/></clipPath><g clip-path="url(#_clip1)"><g><path d="M2677.24,2119.26c0,0 -47.936,-65.79 -57.701,-104.306c-13.315,-52.522 -17.132,-140.346 -22.192,-210.829c-5.178,-72.126 -1.85,-156.828 -8.877,-221.926c-6.151,-56.974 -14.094,-114.668 -33.289,-168.663c-19.456,-54.727 -79.954,-161.443 -83.444,-159.698" style="fill:none;stroke:#000;stroke-width:12.5px;"/><path d="M2622.91,2021.52l17.044,-68.175" style="fill:none;stroke:#000;stroke-width:12.5px;"/><path d="M2605.01,1925.53l-24.702,-44.621" style="fill:none;stroke:#000;stroke-width:12.5px;"/><path d="M2597.35,1755.92l32.667,-59.654" style="fill:none;stroke:#000;stroke-width:12.5px;"/><path d="M2584.56,1585.48l-35.508,-52.552" style="fill:none;stroke:#000;stroke-width:12.5px;"/><path d="M2565.83,1438.18l5.818,-22.543" style="fill:none;stroke:#000;stroke-width:12.5px;"/><path d="M2542.37,1384.64l-22.725,-10.908" style="fill:none;stroke:#000;stroke-width:12.5px;"/><path d="M2521.47,1323.73l0,-25.452" style="fill:none;stroke:#000;stroke-width:12.5px;"/></g></g><path d="M2653.83,2131.99c0,0 -54.798,-80.989 -67.022,-127.386c-13.39,-50.821 -9.209,-118.336 -13.316,-177.54c-4.438,-63.989 -4.951,-137.96 -13.315,-206.391c-9.041,-73.965 -23.291,-173.17 -40.931,-237.398c-14.264,-51.936 -64.909,-147.968 -64.909,-147.968c0,0 48.371,28.158 61.366,51.483c24.727,44.384 66.874,142.92 86.995,214.824c19.691,70.367 26.969,146.365 33.733,216.6c6.547,67.993 -4.83,137.506 6.848,204.808c11.842,68.241 55.357,205.742 64.201,204.639" style="fill:none;stroke:#000;stroke-width:8.33px;"/><path d="M2724.82,2135.74c0,0 -57.286,-95.877 -70.259,-150.917c-14.21,-60.289 -10.343,-140.513 -14.999,-210.815c-5.033,-75.983 -6.069,-163.849 -15.196,-245.085c-9.866,-87.806 -25.297,-205.563 -43.998,-281.752c-15.123,-61.608 -68.214,-175.379 -68.214,-175.379c0,0 50.273,33.159 63.886,60.789c25.903,52.575 70.212,169.371 91.535,254.663c20.867,83.469 28.922,173.701 36.404,257.09c7.244,80.727 -4.061,163.367 8.49,243.243c12.726,80.991 58.717,244.065 67.866,242.701" style="fill:#b3b3b3;"/><clipPath id="_clip2"><path d="M2724.82,2135.74c0,0 -57.286,-95.877 -70.259,-150.917c-14.21,-60.289 -10.343,-140.513 -14.999,-210.815c-5.033,-75.983 -6.069,-163.849 -15.196,-245.085c-9.866,-87.806 -25.297,-205.563 -43.998,-281.752c-15.123,-61.608 -68.214,-175.379 -68.214,-175.379c0,0 50.273,33.159 63.886,60.789c25.903,52.575 70.212,169.371 91.535,254.663c20.867,83.469 28.922,173.701 36.404,257.09c7.244,80.727 -4.061,163.367 8.49,243.243c12.726,80.991 58.717,244.065 67.866,242.701"/></clipPath><g clip-path="url(#_clip2)"><g><path d="M2748.96,2120.47c0,0 -50.078,-77.864 -60.451,-123.557c-14.145,-62.31 -18.696,-166.61 -24.417,-250.304c-5.854,-85.645 -2.986,-186.279 -10.707,-263.565c-6.757,-67.641 -15.375,-136.126 -35.617,-200.151c-20.517,-64.892 -83.881,-191.295 -87.482,-189.202" style="fill:none;stroke:#000;stroke-width:12.5px;"/><path d="M2692.05,2004.69l17.18,-81.085" style="fill:none;stroke:#000;stroke-width:12.5px;"/><path d="M2672.85,1890.78l-25.88,-52.856" style="fill:none;stroke:#000;stroke-width:12.5px;"/><path d="M2663.76,1689.35l33.413,-71.055" style="fill:none;stroke:#000;stroke-width:12.5px;"/><path d="M2649.37,1486.97l-37.122,-62.213" style="fill:none;stroke:#000;stroke-width:12.5px;"/><path d="M2628.96,1312.11l5.869,-26.813" style="fill:none;stroke:#000;stroke-width:12.5px;"/><path d="M2604.31,1248.64l-23.602,-12.822" style="fill:none;stroke:#000;stroke-width:12.5px;"/><path d="M2582.25,1176.42l-0.174,-30.233" style="fill:none;stroke:#000;stroke-width:12.5px;"/></g></g><path d="M2724.82,2135.74c0,0 -57.286,-95.877 -70.259,-150.917c-14.21,-60.289 -10.343,-140.513 -14.999,-210.815c-5.033,-75.983 -6.069,-163.849 -15.196,-245.085c-9.866,-87.806 -25.297,-205.563 -43.998,-281.752c-15.123,-61.608 -68.214,-175.379 -68.214,-175.379c0,0 50.273,33.159 63.886,60.789c25.903,52.575 70.212,169.371 91.535,254.663c20.867,83.469 28.922,173.701 36.404,257.09c7.244,80.727 -4.061,163.367 8.49,243.243c12.726,80.991 58.717,244.065 67.866,242.701" style="fill:none;stroke:#000;stroke-width:8.33px;"/><path d="M2709.17,2142.83c0,0 56.353,-55.441 71.884,-89.489c17.012,-37.295 20.413,-89.463 30.188,-134.281c10.566,-48.44 18.743,-104.988 33.203,-156.36c15.63,-55.525 38.449,-129.745 60.577,-176.793c17.893,-38.044 72.189,-105.492 72.189,-105.492c0,0 -45.217,15.776 -59.011,32.076c-26.248,31.016 -73.378,101.395 -98.476,154.022c-24.562,51.501 -38.863,108.793 -52.113,161.735c-12.827,51.253 -10.147,105.808 -27.386,155.92c-17.479,50.811 -69.876,150.847 -77.49,148.947" style="fill:#b3b3b3;"/><clipPath id="_clip3"><path d="M2709.17,2142.83c0,0 56.353,-55.441 71.884,-89.489c17.012,-37.295 20.413,-89.463 30.188,-134.281c10.566,-48.44 18.743,-104.988 33.203,-156.36c15.63,-55.525 38.449,-129.745 60.577,-176.793c17.893,-38.044 72.189,-105.492 72.189,-105.492c0,0 -45.217,15.776 -59.011,32.076c-26.248,31.016 -73.378,101.395 -98.476,154.022c-24.562,51.501 -38.863,108.793 -52.113,161.735c-12.827,51.253 -10.147,105.808 -27.386,155.92c-17.479,50.811 -69.876,150.847 -77.49,148.947"/></clipPath><g clip-path="url(#_clip3)"><g><path d="M2690.05,2130.29c0,0 48.768,-44.628 61.326,-72.938c17.125,-38.606 29.637,-105.361 41.425,-158.697c12.061,-54.579 18.003,-119.797 30.946,-168.777c11.329,-42.868 24.299,-86.073 46.717,-125.104c22.721,-39.56 86.745,-114.01 89.613,-112.258" style="fill:none;stroke:#000;stroke-width:12.5px;"/><path d="M2747.74,2061.98l-7.772,-54.208" style="fill:none;stroke:#000;stroke-width:12.5px;"/><path d="M2773.42,1990.65l26.251,-31.2" style="fill:none;stroke:#000;stroke-width:12.5px;"/><path d="M2797.84,1861.77l-22.317,-49.551" style="fill:none;stroke:#000;stroke-width:12.5px;"/><path d="M2826.82,1732.86l36.523,-35.98" style="fill:none;stroke:#000;stroke-width:12.5px;"/><path d="M2858.58,1622.37l-2.729,-17.947" style="fill:none;stroke:#000;stroke-width:12.5px;"/><path d="M2884.67,1584.19l21.001,-5.636" style="fill:none;stroke:#000;stroke-width:12.5px;"/><path d="M2909.31,1540.07l2.659,-19.478" style="fill:none;stroke:#000;stroke-width:12.5px;"/></g></g><path d="M2709.17,2142.83c0,0 56.353,-55.441 71.884,-89.489c17.012,-37.295 20.413,-89.463 30.188,-134.281c10.566,-48.44 18.743,-104.988 33.203,-156.36c15.63,-55.525 38.449,-129.745 60.577,-176.793c17.893,-38.044 72.189,-105.492 72.189,-105.492c0,0 -45.217,15.776 -59.011,32.076c-26.248,31.016 -73.378,101.395 -98.476,154.022c-24.562,51.501 -38.863,108.793 -52.113,161.735c-12.827,51.253 -10.147,105.808 -27.386,155.92c-17.479,50.811 -69.876,150.847 -77.49,148.947" style="fill:none;stroke:#000;stroke-width:8.33px;"/><path d="M2663.31,2138.71c0,0 91.099,-1.874 118.004,-21.266c26.906,-19.391 27.114,-64.391 43.431,-95.083c17.651,-33.201 35.877,-73.223 62.475,-104.127c27.432,-31.871 69.18,-71.609 102.116,-87.104c25.508,-12 95.501,-5.868 95.501,-5.868c0,0 -48.465,-35.997 -71.403,-34.346c-31.987,2.304 -86.723,25.09 -120.519,48.167c-35.181,24.022 -64.211,63.042 -90.563,95.964c-25.511,31.871 -41.641,69.976 -67.549,101.57c-26.547,32.373 -85.686,97.059 -91.734,92.671" style="fill:#b3b3b3;"/><clipPath id="_clip4"><path d="M2663.31,2138.71c0,0 91.099,-1.874 118.004,-21.266c26.906,-19.391 27.114,-64.391 43.431,-95.083c17.651,-33.201 35.877,-73.223 62.475,-104.127c27.432,-31.871 69.18,-71.609 102.116,-87.104c25.508,-12 95.501,-5.868 95.501,-5.868c0,0 -48.465,-35.997 -71.403,-34.346c-31.987,2.304 -86.723,25.09 -120.519,48.167c-35.181,24.022 -64.211,63.042 -90.563,95.964c-25.511,31.871 -41.641,69.976 -67.549,101.57c-26.547,32.373 -85.686,97.059 -91.734,92.671"/></clipPath><g clip-path="url(#_clip4)"><g><path d="M2650.3,2122.09c0,0 54.718,-12.852 73.541,-28.287c25.668,-21.05 55.268,-64.223 80.467,-98.009c25.785,-34.573 49.273,-79.243 74.245,-109.43c21.857,-26.419 41.634,-59.897 75.59,-71.69c33.956,-11.793 126.162,-1.467 128.148,0.932" style="fill:none;stroke:#000;stroke-width:12.5px;"/><path d="M2719.4,2095.7l8.535,-42.166" style="fill:none;stroke:#000;stroke-width:12.5px;"/><path d="M2761.67,2054.45l50.79,-16.638" style="fill:none;stroke:#000;stroke-width:12.5px;"/><path d="M2819.05,1971.19l-5.35,-44.571" style="fill:none;stroke:#000;stroke-width:12.5px;"/><path d="M2880.37,1889.73l41.7,-11.468" style="fill:none;stroke:#000;stroke-width:12.5px;"/><path d="M2938.93,1822.65l2.691,-14.021" style="fill:none;stroke:#000;stroke-width:12.5px;"/><path d="M2972.23,1817.96l19.741,4.259" style="fill:none;stroke:#000;stroke-width:12.5px;"/><path d="M3005.94,1804.25l7.78,-12.991" style="fill:none;stroke:#000;stroke-width:12.5px;"/></g></g><path d="M2663.31,2138.71c0,0 91.099,-1.874 118.004,-21.266c26.906,-19.391 27.114,-64.391 43.431,-95.083c17.651,-33.201 35.877,-73.223 62.475,-104.127c27.432,-31.871 69.18,-71.609 102.116,-87.104c25.508,-12 95.501,-5.868 95.501,-5.868c0,0 -48.465,-35.997 -71.403,-34.346c-31.987,2.304 -86.723,25.09 -120.519,48.167c-35.181,24.022 -64.211,63.042 -90.563,95.964c-25.511,31.871 -41.641,69.976 -67.549,101.57c-26.547,32.373 -85.686,97.059 -91.734,92.671" style="fill:none;stroke:#000;stroke-width:8.33px;"/><path d="M2702.1,2128.44c0,0 59.025,-84.997 72.192,-133.691c14.423,-53.336 9.92,-124.194 14.343,-186.329c4.781,-67.156 5.333,-144.789 14.343,-216.607c9.738,-77.626 25.087,-181.741 44.088,-249.148c15.365,-54.508 69.918,-155.293 69.918,-155.293c0,0 -52.104,29.552 -66.101,54.031c-26.635,46.582 -72.033,149.995 -93.706,225.458c-21.211,73.85 -29.05,153.61 -36.336,227.321c-7.052,71.359 4.593,144.212 -7.377,214.946c-12.376,73.134 -57.354,225.017 -66.881,223.859" style="fill:#b3b3b3;"/><clipPath id="_clip5"><path d="M2702.1,2128.44c0,0 59.025,-84.997 72.192,-133.691c14.423,-53.336 9.92,-124.194 14.343,-186.329c4.781,-67.156 5.333,-144.789 14.343,-216.607c9.738,-77.626 25.087,-181.741 44.088,-249.148c15.365,-54.508 69.918,-155.293 69.918,-155.293c0,0 -52.104,29.552 -66.101,54.031c-26.635,46.582 -72.033,149.995 -93.706,225.458c-21.211,73.85 -29.05,153.61 -36.336,227.321c-7.052,71.359 4.593,144.212 -7.377,214.946c-12.376,73.134 -57.354,225.017 -66.881,223.859"/></clipPath><g clip-path="url(#_clip5)"><g><path d="M2662.11,2134.39c0,0 63.149,-80.964 76.924,-128.785c16.805,-58.341 18.454,-147.293 23.904,-221.265c5.578,-75.696 1.993,-164.591 9.562,-232.911c6.626,-59.795 15.181,-120.344 35.857,-177.012c20.957,-57.436 86.123,-169.434 89.882,-167.603" style="fill:none;stroke:#000;stroke-width:12.5px;"/><path d="M2735.4,2012.5l-18.358,-71.55" style="fill:none;stroke:#000;stroke-width:12.5px;"/><path d="M2754.69,1911.76l26.608,-46.83" style="fill:none;stroke:#000;stroke-width:12.5px;"/><path d="M2762.94,1733.76l-35.187,-62.607" style="fill:none;stroke:#000;stroke-width:12.5px;"/><path d="M2776.71,1554.88l38.247,-55.153" style="fill:none;stroke:#000;stroke-width:12.5px;"/><path d="M2796.89,1400.29l-6.267,-23.659" style="fill:none;stroke:#000;stroke-width:12.5px;"/><path d="M2822.16,1344.09l24.478,-11.449" style="fill:none;stroke:#000;stroke-width:12.5px;"/><path d="M2844.68,1280.17l0,-26.712" style="fill:none;stroke:#000;stroke-width:12.5px;"/></g></g><path d="M2702.1,2128.44c0,0 59.025,-84.997 72.192,-133.691c14.423,-53.336 9.92,-124.194 14.343,-186.329c4.781,-67.156 5.333,-144.789 14.343,-216.607c9.738,-77.626 25.087,-181.741 44.088,-249.148c15.365,-54.508 69.918,-155.293 69.918,-155.293c0,0 -52.104,29.552 -66.101,54.031c-26.635,46.582 -72.033,149.995 -93.706,225.458c-21.211,73.85 -29.05,153.61 -36.336,227.321c-7.052,71.359 4.593,144.212 -7.377,214.946c-12.376,73.134 -57.354,225.017 -66.881,223.859" style="fill:none;stroke:#000;stroke-width:8.33px;"/></g><g id="Planter"><path d="M2913.97,2195.34l-402.662,0l39.201,255.659l324.26,0l39.201,-255.659Z" style="fill:#ccc;"/><clipPath id="_clip6"><path d="M2913.97,2195.34l-402.662,0l39.201,255.659l324.26,0l39.201,-255.659Z"/></clipPath><g clip-path="url(#_clip6)"><path d="M2668.58,2188.46l-123.568,0l34.087,268.861l89.481,0l0,-268.861Z" style="fill:#fff;"/><rect x="2468.92" y="2179.62" width="483.954" height="42.61" style="fill:#a6a6a6;"/></g><path d="M2913.97,2195.34l-402.662,0l39.201,255.659l324.26,0l39.201,-255.659Z" style="fill:none;stroke:#000;stroke-width:20.83px;"/><rect x="2551.26" y="2427.37" width="325.985" height="25.225" style="fill:#ccc;"/><clipPath id="_clip7"><rect x="2551.26" y="2427.37" width="325.985" height="25.225"/></clipPath><g clip-path="url(#_clip7)"><path d="M2668.58,2179.82l-123.568,0l34.087,277.496l89.481,0l0,-277.496Z" style="fill:#fff;"/></g><rect x="2551.26" y="2427.37" width="325.985" height="25.225" style="fill:none;stroke:#000;stroke-width:12.5px;"/><rect x="2489.22" y="2133.87" width="441.949" height="57.949" style="fill:#ccc;"/><clipPath id="_clip8"><rect x="2489.22" y="2133.87" width="441.949" height="57.949"/></clipPath><g clip-path="url(#_clip8)"><rect x="2524.82" y="1978.79" width="123.568" height="232.223" style="fill:#fff;"/></g><rect x="2489.22" y="2133.87" width="441.949" height="57.949" style="fill:none;stroke:#000;stroke-width:20.83px;"/></g></g><g id="Desk"><g><rect x="1295.57" y="2052.82" width="800.343" height="76.934" style="fill:#8a6600;"/><rect x="1295.57" y="2094.25" width="800.343" height="35.508" style="fill:#6b5004;"/><rect x="1295.57" y="2052.82" width="800.343" height="76.934" style="fill:none;stroke:#000;stroke-width:12.5px;"/><path d="M2229.37,1847.3l-103.566,0c-26.343,28.212 -102.915,173.878 -100.879,234.179c3.737,110.72 91.612,236.13 155.571,385.206l90.536,0c-43.469,-125.8 -115.212,-251.625 -129.907,-375.951c-0.586,-4.954 45.657,-160.979 88.245,-243.434Z" style="fill:#6c5204;"/><clipPath id="_clip9"><path d="M2229.37,1847.3l-103.566,0c-26.343,28.212 -102.915,173.878 -100.879,234.179c3.737,110.72 91.612,236.13 155.571,385.206l90.536,0c-43.469,-125.8 -115.212,-251.625 -129.907,-375.951c-0.586,-4.954 45.657,-160.979 88.245,-243.434Z"/></clipPath><g clip-path="url(#_clip9)"><rect x="2074.06" y="1838.64" width="174.226" height="77.644" style="fill:#554003;"/><path d="M2312.67,2387.83c-62.314,20.644 -125.794,17.967 -193.164,-62.495l18.938,140.139l174.226,0l0,-77.644Z" style="fill:#554003;"/></g><path d="M2229.37,1847.3l-103.566,0c-26.343,28.212 -102.915,173.878 -100.879,234.179c3.737,110.72 91.612,236.13 155.571,385.206l90.536,0c-43.469,-125.8 -115.212,-251.625 -129.907,-375.951c-0.586,-4.954 45.657,-160.979 88.245,-243.434Z" style="fill:none;stroke:#000;stroke-width:12.5px;"/><path d="M1108.22,1847.3l103.566,0c26.343,28.212 102.915,173.878 100.879,234.179c-3.737,110.72 -91.612,236.13 -155.571,385.206l-90.537,0c43.47,-125.8 115.213,-251.625 129.908,-375.951c0.585,-4.954 -45.658,-160.979 -88.245,-243.434Z" style="fill:#6c5204;"/><clipPath id="_clip10"><path d="M1108.22,1847.3l103.566,0c26.343,28.212 102.915,173.878 100.879,234.179c-3.737,110.72 -91.612,236.13 -155.571,385.206l-90.537,0c43.47,-125.8 115.213,-251.625 129.908,-375.951c0.585,-4.954 -45.658,-160.979 -88.245,-243.434Z"/></clipPath><g clip-path="url(#_clip10)"><rect x="1089.3" y="1838.64" width="174.226" height="77.644" style="fill:#554003;"/><path d="M1024.92,2387.83c62.314,20.644 125.794,17.967 193.164,-62.495l-18.938,140.139l-174.226,0l0,-77.644Z" style="fill:#554003;"/></g><path d="M1108.22,1847.3l103.566,0c26.343,28.212 102.915,173.878 100.879,234.179c-3.737,110.72 -91.612,236.13 -155.571,385.206l-90.537,0c43.47,-125.8 115.213,-251.625 129.908,-375.951c0.585,-4.954 -45.658,-160.979 -88.245,-243.434Z" style="fill:none;stroke:#000;stroke-width:12.5px;"/></g><rect x="699.894" y="1771.61" width="1942.97" height="77.14" style="fill:#8a6600;"/><rect x="699.894" y="1813.15" width="1942.97" height="35.603" style="fill:#6b5004;"/><rect x="699.894" y="1771.61" width="1942.97" height="77.14" style="fill:none;stroke:#000;stroke-width:12.5px;"/></g><g id="Books"><rect x="1486.27" y="2019.28" width="392.38" height="28.959" style="fill:#fff;stroke:#000;stroke-width:8.33px;"/><rect x="1450.45" y="1988.94" width="392.38" height="28.959" style="fill:#a6a6a6;stroke:#000;stroke-width:8.33px;"/><rect x="1470" y="1956.56" width="392.38" height="28.959" style="fill:#fff;stroke:#000;stroke-width:8.33px;"/><path d="M1488.1,1949.56c2.85,-3.601 4.092,-8.103 4.047,-12.343c-0.058,-5.299 -2.302,-10.09 -5.63,-12.725c-3.479,-2.754 -13.724,-6.911 -21.538,-6.667c-5.152,0.161 -9.285,2.218 -11.538,6.002c-2.437,4.094 -4.176,14.66 -4.28,25.358c-0.102,10.437 1.467,20.887 4.252,25.647c1.392,2.378 3.593,4.476 6.092,6.226c3.222,2.258 6.976,3.883 9.302,4.88c3.189,1.314 6.845,-0.21 8.158,-3.4c1.313,-3.189 -0.21,-6.845 -3.4,-8.158c-1.552,-0.613 -3.931,-1.52 -6.171,-2.818c-1.418,-0.822 -2.883,-1.71 -3.669,-2.968c-2.218,-3.548 -3.031,-11.547 -3.184,-19.463c-0.162,-8.351 0.372,-16.709 2.181,-19.959c0.332,-0.598 1.074,-0.676 1.83,-0.79c1.589,-0.24 3.408,-0.125 5.236,0.18c4.385,0.732 8.859,2.418 10.694,3.786c1.347,1.004 1.97,3.016 2.053,5.112c0.087,2.178 -0.418,4.528 -1.828,6.421c-1.568,2.04 -1.184,4.969 0.856,6.536c2.04,1.568 4.969,1.184 6.537,-0.857Z"/><path d="M1862.4,1957.94l-392.26,-9.697l-0.716,28.95l392.26,9.697l0.716,-28.95Z" style="fill:#fff;stroke:#000;stroke-width:8.33px;"/><path d="M1775.22,1955.41c11.422,-1.012 34.267,-3.037 48.861,-6.162c13.264,-2.84 30.222,-9.338 38.701,-12.587" style="fill:none;stroke:#000;stroke-width:8.33px;"/></g><g id="PC"><path d="M2093.36,1203.66c0,-8.22 -3.266,-16.104 -9.078,-21.916c-5.813,-5.813 -13.696,-9.078 -21.916,-9.078c-132.392,0 -649.734,0 -782.126,0c-8.22,0 -16.104,3.265 -21.916,9.078c-5.813,5.812 -9.078,13.696 -9.078,21.916c0,117.179 0,526.529 0,526.529l844.114,0l0,-526.529Z" style="fill:#bfbfbf;stroke:#000;stroke-width:12.5px;"/><rect x="1289.73" y="1226.13" width="763.16" height="468.985" style="fill:#333;"/><clipPath id="_clip11"><rect x="1289.73" y="1226.13" width="763.16" height="468.985"/></clipPath><g clip-path="url(#_clip11)"><path d="M2062.42,1145.63l-141.419,-139.611l-657.012,665.52l141.42,139.611l657.011,-665.52Z" style="fill:#fff;fill-opacity:0.25;"/><path d="M1827.52,1045.63l-33.187,-32.728l-656.647,665.88l33.187,32.728l656.647,-665.88Z" style="fill:#fff;fill-opacity:0.25;"/></g><rect x="1289.73" y="1226.13" width="763.16" height="468.985" style="fill:none;stroke:#000;stroke-width:12.5px;"/><path d="M2159.36,1721.24l-991.422,0c-0.199,20.955 5.942,38.74 24.132,50.501l955.224,0c11.294,-16.834 14.562,-33.667 12.066,-50.501Z" style="fill:#bfbfbf;stroke:#000;stroke-width:12.5px;"/></g><g id="steam"><path d="M2293.74,1636.62c0,0 -16.925,-11.509 -18.377,-18.077c-1.452,-6.567 2.106,-19.021 9.663,-21.33" style="fill:none;stroke:#000;stroke-width:12.5px;"/><path d="M2322,1569.57c0,0 14.954,-3.291 20.43,-8.171c6.265,-5.584 14.006,-17.029 17.161,-25.333c2.906,-7.652 1.766,-24.493 1.766,-24.493" style="fill:none;stroke:#000;stroke-width:12.5px;"/><path d="M2355.51,1488.67l-5.012,-6.015" style="fill:none;stroke:#000;stroke-width:12.5px;"/><path d="M2334.26,1469.87c-8.172,-3.268 -19.71,-3.414 -27.141,-1.149" style="fill:none;stroke:#000;stroke-width:12.5px;"/></g><g id="mug"><path d="M2401.52,1683.27c3.23,0.886 8.092,2.164 12.377,4.295c1.276,0.634 2.5,1.341 3.539,2.184c0.566,0.459 1.202,0.844 1.363,1.507c0.956,3.943 0.057,10.828 -1.462,17.672c-1.545,6.96 -3.796,13.96 -6.737,17.701c-1.813,2.308 -5.184,2.968 -8.41,3.59c-5.114,0.987 -10.392,1.033 -13.909,1.091c-5.748,0.094 -10.339,4.837 -10.245,10.585c0.094,5.749 4.838,10.339 10.586,10.245c5.422,-0.089 14.088,-0.324 21.758,-2.455c6.74,-1.872 12.702,-5.223 16.599,-10.181c4.375,-5.565 8.399,-15.709 10.696,-26.063c2.324,-10.471 2.833,-21.063 1.37,-27.095c-1.533,-6.323 -6.012,-11.563 -12.151,-15.371c-6.396,-3.968 -14.665,-6.37 -19.863,-7.796c-5.544,-1.521 -11.28,1.746 -12.801,7.29c-1.521,5.545 1.746,11.281 7.29,12.801Z" style="fill:#bf406d;stroke:#000;stroke-width:12.5px;stroke-linecap:butt;stroke-miterlimit:2;"/><path d="M2405.44,1656.51c0.831,5.125 1.262,10.377 1.262,15.729c0,32.646 -16.047,61.571 -40.669,79.303l0,18.352l-113.895,0l0,-18.352c-24.622,-17.732 -40.669,-46.657 -40.669,-79.303c0,-5.352 0.431,-10.604 1.262,-15.729l192.709,0Z" style="fill:#bf406d;"/><clipPath id="_clip12"><path d="M2405.44,1656.51c0.831,5.125 1.262,10.377 1.262,15.729c0,32.646 -16.047,61.571 -40.669,79.303l0,18.352l-113.895,0l0,-18.352c-24.622,-17.732 -40.669,-46.657 -40.669,-79.303c0,-5.352 0.431,-10.604 1.262,-15.729l192.709,0Z"/></clipPath><g clip-path="url(#_clip12)"><rect x="2181.54" y="1609.87" width="279.629" height="62.565" style="fill:#fff;fill-opacity:0.31;"/></g><path d="M2405.44,1656.51c0.831,5.125 1.262,10.377 1.262,15.729c0,32.646 -16.047,61.571 -40.669,79.303l0,18.352l-113.895,0l0,-18.352c-24.622,-17.732 -40.669,-46.657 -40.669,-79.303c0,-5.352 0.431,-10.604 1.262,-15.729l192.709,0Z" style="fill:none;stroke:#000;stroke-width:12.5px;"/></g><path id="bean-bag" serif:id="bean bag" d="M1218.69,2468.8c0,0 80.267,-60.308 105.488,-102.297c25.817,-42.979 42.965,-110.544 49.409,-155.58c5.436,-37.991 1.573,-78.558 -10.744,-114.632c-15.32,-44.87 -89.121,-89.426 -139.687,-126.817c-51.712,-38.238 -116.202,-64.595 -170.586,-102.616c-58.215,-40.699 -116.259,-77.978 -178.701,-141.576c-61.056,-62.186 -140.036,-171.239 -199.964,-226.635c-46.863,-43.319 -101.083,-101.057 -159.605,-105.738c-58.522,-4.682 -155.948,45.594 -191.527,77.648c-28.915,26.05 -29.382,76.462 -21.946,114.676c6.867,35.289 17.468,53.445 11.675,90.167c-12.906,81.813 -24.843,279.979 -28.034,383.442c-2.711,87.895 34.565,229.391 58.256,297.686c15.293,44.088 83.885,112.083 83.885,112.083l792.081,0.189Z" style="fill:#abc18b;"/><clipPath id="_clip13"><path id="bean-bag1" serif:id="bean bag" d="M1218.69,2468.8c0,0 80.267,-60.308 105.488,-102.297c25.817,-42.979 42.965,-110.544 49.409,-155.58c5.436,-37.991 1.573,-78.558 -10.744,-114.632c-15.32,-44.87 -89.121,-89.426 -139.687,-126.817c-51.712,-38.238 -116.202,-64.595 -170.586,-102.616c-58.215,-40.699 -116.259,-77.978 -178.701,-141.576c-61.056,-62.186 -140.036,-171.239 -199.964,-226.635c-46.863,-43.319 -101.083,-101.057 -159.605,-105.738c-58.522,-4.682 -155.948,45.594 -191.527,77.648c-28.915,26.05 -29.382,76.462 -21.946,114.676c6.867,35.289 17.468,53.445 11.675,90.167c-12.906,81.813 -24.843,279.979 -28.034,383.442c-2.711,87.895 34.565,229.391 58.256,297.686c15.293,44.088 83.885,112.083 83.885,112.083l792.081,0.189Z"/></clipPath><g clip-path="url(#_clip13)"><path d="M1218.49,2485.67c0,0 74.484,-55.241 97.359,-94.167c24.461,-41.625 42.964,-110.544 49.408,-155.58c5.437,-37.991 1.574,-78.558 -10.743,-114.632c-15.321,-44.87 -89.122,-89.426 -139.687,-126.817c-51.712,-38.238 -116.202,-64.595 -170.587,-102.616c-58.214,-40.699 -116.258,-77.978 -178.701,-141.576c-61.055,-62.186 -140.035,-171.239 -199.963,-226.635c-46.864,-43.319 -101.084,-101.057 -159.606,-105.738c-58.522,-4.682 -155.948,45.594 -191.526,77.648c-28.915,26.05 -29.382,76.462 -21.946,114.676c6.866,35.289 17.468,53.445 11.675,90.167c-12.906,81.813 -24.843,279.979 -28.034,383.442c-2.711,87.895 34.565,229.391 58.255,297.686c15.294,44.088 83.886,112.083 83.886,112.083l800.21,-7.941Z" style="fill:#86a659;"/><path d="M308.884,1566.18c0,0 31.99,109.68 84.545,134.815c52.555,25.135 143.955,18.28 143.955,18.28c0,0 -75.874,158.932 -89.115,221.645c-10.67,50.531 -4.548,104.982 9.664,154.633c14.965,52.277 29.78,127.581 80.123,159.027c65.13,40.684 203.91,73.581 310.659,85.073c107.603,11.584 247.049,7.928 334.959,-15.569c73.986,-19.776 163.542,-59.73 192.5,-125.416l-89.687,450.146l-975.791,-43.569l-148.525,-894.007l146.713,-145.058Z" style="fill-opacity:0.29;"/><path d="M315.864,1694.71c0,0 65.272,51.622 101.637,56.375c36.365,4.753 116.554,-27.859 116.554,-27.859c0,0 -32.943,48.854 -58.496,60.324c-28.304,12.705 -78.08,15.445 -111.326,15.904c-29.704,0.41 -88.146,-13.149 -88.146,-13.149l39.777,-91.595Z" style="fill-opacity:0.29;"/><path d="M292.159,2133.27c0,0 26.112,86.354 36.267,107.633c4.563,9.56 15.021,23.037 24.665,20.04c9.644,-2.997 33.197,-38.021 33.197,-38.021c0,0 21.844,55.176 30.886,69.716c5.14,8.266 13.845,16.585 23.361,17.521c9.515,0.936 33.731,-11.906 33.731,-11.906c0,0 158.335,120.738 307.142,119.648c148.808,-1.09 297.595,-25.578 297.595,-25.578c0,0 11.275,16.449 24.753,17.947c13.477,1.497 36.245,-35.121 36.245,-35.121c0,0 11.232,25.457 42.679,24.709c31.448,-0.749 157.527,-55.806 157.527,-55.806l-40.216,243.124l-1001.6,32.133l-6.231,-486.039Z" style="fill-opacity:0.29;"/><path d="M320.894,1652.94c16.201,36.758 44.494,61.425 82.117,76.761" style="fill:none;stroke:#000;stroke-width:12.5px;"/><path d="M318.216,1702.03c6.699,18.117 20.673,31.868 39.273,42.844" style="fill:none;stroke:#000;stroke-width:12.5px;"/><path d="M389.832,2143.3c-3.321,10.487 -3.491,20.974 -2.451,31.461" style="fill:none;stroke:#000;stroke-width:12.5px;"/><path d="M472.827,2290.14c-0.969,68.936 19.27,125.146 52.351,173.651" style="fill:none;stroke:#000;stroke-width:12.5px;"/><path d="M384.725,2209.7c2.406,102.008 42.281,185.282 105.978,256.646" style="fill:none;stroke:#000;stroke-width:12.5px;"/><g id="seam"><path d="M400.744,1429.01c11.706,-9.755 201.909,259.785 232.864,291.839c27.38,28.351 78.148,72.335 132.233,111.165c53.678,38.537 136.832,74.027 188.947,117.279c45.993,38.171 158.195,136.095 184.131,231.858c25.936,95.764 -32.479,283.699 -32.479,283.699" style="fill:none;stroke:#fff;stroke-opacity:0.1;stroke-width:12.5px;"/><path d="M411.883,1423.1c11.707,-9.755 201.91,259.785 232.865,291.839c27.379,28.351 78.148,72.335 132.233,111.165c53.678,38.537 136.832,74.027 188.947,117.279c45.993,38.172 158.195,136.095 184.131,231.858c25.936,95.764 -32.479,283.699 -32.479,283.699" style="fill:none;stroke:#000;stroke-width:12.5px;"/><path d="M481.765,1524.03l31.921,-19.152" style="fill:none;stroke:#000;stroke-width:12.5px;"/><path d="M502.195,1557.23l35.751,-16.599" style="fill:none;stroke:#000;stroke-width:12.5px;"/><path d="M632.433,1725.77l44.689,-6.384" style="fill:none;stroke:#000;stroke-width:12.5px;"/><path d="M702.659,1739.82l-7.661,40.859" style="fill:none;stroke:#000;stroke-width:12.5px;"/><path d="M1134.23,2212.25l44.689,-11.492" style="fill:none;stroke:#000;stroke-width:12.5px;"/><path d="M1145.72,2241.62l24.26,2.554" style="fill:none;stroke:#000;stroke-width:12.5px;"/></g><path d="M1084.44,2376.96c-7.126,30.255 -19.688,58.698 -37.029,85.548" style="fill:none;stroke:#000;stroke-width:12.5px;"/><path d="M1062.27,1920.49c6.189,-8.136 24.814,-4.396 41.565,8.347c16.752,12.743 25.326,29.695 19.137,37.831c-6.19,8.136 -24.815,4.396 -41.566,-8.347c-16.751,-12.743 -25.326,-29.694 -19.136,-37.831Z" style="fill:#abc18b;"/><path d="M1008.07,1918.55c5.053,-6.642 20.258,-3.589 33.933,6.814c13.676,10.404 20.676,24.242 15.623,30.885c-5.053,6.642 -20.258,3.589 -33.934,-6.815c-13.675,-10.403 -20.675,-24.242 -15.622,-30.884Z" style="fill:#abc18b;"/></g><path id="bean-bag2" serif:id="bean bag" d="M1218.69,2468.8c0,0 80.267,-60.308 105.488,-102.297c25.817,-42.979 42.965,-110.544 49.409,-155.58c5.436,-37.991 1.573,-78.558 -10.744,-114.632c-15.32,-44.87 -89.121,-89.426 -139.687,-126.817c-51.712,-38.238 -116.202,-64.595 -170.586,-102.616c-58.215,-40.699 -116.259,-77.978 -178.701,-141.576c-61.056,-62.186 -140.036,-171.239 -199.964,-226.635c-46.863,-43.319 -101.083,-101.057 -159.605,-105.738c-58.522,-4.682 -155.948,45.594 -191.527,77.648c-28.915,26.05 -29.382,76.462 -21.946,114.676c6.867,35.289 17.468,53.445 11.675,90.167c-12.906,81.813 -24.843,279.979 -28.034,383.442c-2.711,87.895 34.565,229.391 58.256,297.686c15.293,44.088 83.885,112.083 83.885,112.083l792.081,0.189Z" style="fill:none;stroke:#000;stroke-width:25px;"/><path d="M2763.17,2471.14l-2452.8,0" style="fill:none;stroke:#000;stroke-width:20.83px;"/><path d="M277.504,2469.99l-33.948,0" style="fill:none;stroke:#000;stroke-width:20.83px;"/></g></svg>